<svg width="8" height="10" viewBox="0 0 8 10" fill="none" xmlns="http://www.w3.org/2000/svg">
<path d="M4.35227 7.36364V6.90341C4.35227 6.58523 4.41761 6.29403 4.5483 6.02983C4.68182 5.76278 4.875 5.54972 5.12784 5.39062C5.38352 5.22869 5.69318 5.14773 6.05682 5.14773C6.42614 5.14773 6.7358 5.22869 6.9858 5.39062C7.2358 5.54972 7.42472 5.76278 7.55256 6.02983C7.6804 6.29403 7.74432 6.58523 7.74432 6.90341V7.36364C7.74432 7.68182 7.67898 7.97443 7.5483 8.24148C7.42045 8.50568 7.23011 8.71875 6.97727 8.88068C6.72727 9.03977 6.42045 9.11932 6.05682 9.11932C5.6875 9.11932 5.37642 9.03977 5.12358 8.88068C4.87074 8.71875 4.67898 8.50568 4.5483 8.24148C4.41761 7.97443 4.35227 7.68182 4.35227 7.36364ZM5.22159 6.90341V7.36364C5.22159 7.62784 5.28409 7.86506 5.40909 8.07528C5.53409 8.28267 5.75 8.38636 6.05682 8.38636C6.35511 8.38636 6.56534 8.28267 6.6875 8.07528C6.8125 7.86506 6.875 7.62784 6.875 7.36364V6.90341C6.875 6.6392 6.81534 6.40341 6.69602 6.19602C6.5767 5.9858 6.36364 5.88068 6.05682 5.88068C5.75852 5.88068 5.54403 5.9858 5.41335 6.19602C5.28551 6.40341 5.22159 6.6392 5.22159 6.90341ZM0.00568184 2.36932V1.90909C0.00568184 1.59091 0.0710227 1.29972 0.201705 1.03551C0.335227 0.768466 0.528409 0.555398 0.78125 0.396307C1.03693 0.234375 1.34659 0.153409 1.71023 0.153409C2.07955 0.153409 2.3892 0.234375 2.6392 0.396307C2.8892 0.555398 3.07813 0.768466 3.20597 1.03551C3.33381 1.29972 3.39773 1.59091 3.39773 1.90909V2.36932C3.39773 2.6875 3.33239 2.98011 3.2017 3.24716C3.07386 3.51136 2.88352 3.72443 2.63068 3.88636C2.38068 4.04545 2.07386 4.125 1.71023 4.125C1.34091 4.125 1.02983 4.04545 0.776989 3.88636C0.524148 3.72443 0.332386 3.51136 0.201705 3.24716C0.0710227 2.98011 0.00568184 2.6875 0.00568184 2.36932ZM0.875 1.90909V2.36932C0.875 2.63352 0.9375 2.87074 1.0625 3.08097C1.1875 3.28835 1.40341 3.39205 1.71023 3.39205C2.00852 3.39205 2.21875 3.28835 2.34091 3.08097C2.46591 2.87074 2.52841 2.63352 2.52841 2.36932V1.90909C2.52841 1.64489 2.46875 1.40909 2.34943 1.2017C2.23011 0.991477 2.01705 0.886364 1.71023 0.886364C1.41193 0.886364 1.19744 0.991477 1.06676 1.2017C0.93892 1.40909 0.875 1.64489 0.875 1.90909ZM0.329546 9L6.32955 0.272727H7.30114L1.30114 9H0.329546Z" fill="white"/>
</svg>
