<svg width="24" height="24" viewBox="0 0 24 24" fill="none" xmlns="http://www.w3.org/2000/svg">
<path d="M19.7773 0.292821C19.6021 0.103973 19.3508 -0.00279787 19.0878 5.57732e-05H0.911447C0.669657 5.57732e-05 0.437821 0.0927417 0.266799 0.257296C0.096 0.42205 0 0.645402 0 0.878146V23.1219C0 23.3546 0.0959946 23.578 0.266799 23.7428C0.43781 23.9073 0.669646 24 0.911447 24H23.0887H23.0885C23.3303 24 23.5621 23.9073 23.7331 23.7428C23.9039 23.578 23.9999 23.3547 23.9999 23.1219V5.31801C24.0029 5.10324 23.9238 4.895 23.7783 4.7327L19.7773 0.292821ZM6.68366 1.75623H16.709V6.87815H6.68366V1.75623ZM16.709 22.2439H6.68366V14.1952H16.709V22.2439ZM22.1773 22.2439H18.5318L18.5316 13.3171C18.5316 13.0844 18.4356 12.861 18.2648 12.6963C18.0938 12.5317 17.862 12.439 17.6204 12.439H5.77227C5.53069 12.439 5.29886 12.5317 5.12784 12.6963C4.95704 12.861 4.86083 13.0844 4.86083 13.3171V22.2439H1.82285V1.75623H4.86083V7.75619C4.86083 7.98893 4.95703 8.21228 5.12784 8.37704C5.29885 8.54159 5.53069 8.63428 5.77227 8.63428H17.6204C17.862 8.63428 18.0938 8.54159 18.2648 8.37704C18.4356 8.21229 18.5316 7.98893 18.5316 7.75619V1.75623H18.6836L22.1773 5.64606L22.1773 22.2439Z" fill="white"/>
<path d="M13.4279 2.85376H15.2508V5.85364H13.4279V2.85376Z" fill="white"/>
</svg>
